# xmcd CD database file
#
# Track frame offsets:
#	150
#	22066
#	42596
#	59980
#	102643
#	128945
#	153025
#	175633
#	191571
#	200233
#	212579
#
# Disc length: 3000 seconds
#
# Revision: 0
# Processed by: cddbd v1.4PL0 Copyright (c) Steve Scherf et al.
# Submitted via: CDex 1.50
#
DISCID=a80bb60b
DTITLE=Jean-Jacques MILTEAU - Honky Tonk-Blues
DYEAR=1900
DGENRE=Blues
TTITLE0=Caledonia
TTITLE1=Honky Tonk Blues
TTITLE2=Working Man Blues
TTITLE3=Stormy Monday
TTITLE4=St Louis Blues - Kansas City
TTITLE5=Mellow Down Easy
TTITLE6=Roll In My Sweet Baby's Arms
TTITLE7=Big Walter
TTITLE8=The Sailor And The Maid
TTITLE9=Marcelle et Marcel
TTITLE10=Orange Blossom Special
EXTD=
EXTT0=
EXTT1=
EXTT2=
EXTT3=
EXTT4=
EXTT5=
EXTT6=
EXTT7=
EXTT8=
EXTT9=
EXTT10=
PLAYORDER=
